# xmcd CD database file generated by Grip 2.95
# 
# Track frame offsets:
#       150
#       21815
#       46198
#       65577
#       84300
#       109200
#       128712
#       144930
#       164175
#       176700
#       195205
# 
# Disc length: 2834 seconds
# 
# Revision: 3
# Processed by: cddbd v1.4b41PL1 Copyright (c) Steve Scherf et al.
# Submitted via: Grip 2.95
# 
DISCID=900b100b
DTITLE=Frankie Starr - Heaven Help Us
DYEAR=1900
DGENRE=
TTITLE0=Heaven Help Us
TTITLE1=Morning Dew
TTITLE2=Jouisiana
TTITLE3=Jelly Roll
TTITLE4=Back Door Man
TTITLE5=Chump Change
TTITLE6=Dr. Brown
TTITLE7=Voodoo
TTITLE8=See See Baby
TTITLE9=She's Gone
TTITLE10=Gonlie Jam
EXTD=
EXTT0=
EXTT1=
EXTT2=
EXTT3=
EXTT4=
EXTT5=
EXTT6=
EXTT7=
EXTT8=
EXTT9=
EXTT10=
PLAYORDER=
